<?xml version="1.0" standalone="no"?><svg xmlns="http://www.w3.org/2000/svg" viewBox="0 0 1440 320"><path fill="#0099ff" fill-opacity="1" d="M0,160L18.5,160C36.9,160,74,160,111,181.3C147.7,203,185,245,222,256C258.5,267,295,245,332,245.3C369.2,245,406,267,443,266.7C480,267,517,245,554,218.7C590.8,192,628,160,665,170.7C701.5,181,738,235,775,256C812.3,277,849,267,886,224C923.1,181,960,107,997,96C1033.8,85,1071,139,1108,144C1144.6,149,1182,107,1218,90.7C1255.4,75,1292,85,1329,122.7C1366.2,160,1403,224,1422,256L1440,288L1440,320L1421.5,320C1403.1,320,1366,320,1329,320C1292.3,320,1255,320,1218,320C1181.5,320,1145,320,1108,320C1070.8,320,1034,320,997,320C960,320,923,320,886,320C849.2,320,812,320,775,320C738.5,320,702,320,665,320C627.7,320,591,320,554,320C516.9,320,480,320,443,320C406.2,320,369,320,332,320C295.4,320,258,320,222,320C184.6,320,148,320,111,320C73.8,320,37,320,18,320L0,320Z"></path></svg>