<?xml version="1.0" standalone="no"?><svg xmlns="http://www.w3.org/2000/svg" viewBox="0 0 1440 320"><path fill="#0099ff" fill-opacity="1" d="M0,160L18.5,160C36.9,160,74,160,111,181.3C147.7,203,185,245,222,256C258.5,267,295,245,332,245.3C369.2,245,406,267,443,266.7C480,267,517,245,554,218.7C590.8,192,628,160,665,170.7C701.5,181,738,235,775,256C812.3,277,849,267,886,224C923.1,181,960,107,997,96C1033.8,85,1071,139,1108,144C1144.6,149,1182,107,1218,90.7C1255.4,75,1292,85,1329,122.7C1366.2,160,1403,224,1422,256L1440,288L1440,0L1421.5,0C1403.1,0,1366,0,1329,0C1292.3,0,1255,0,1218,0C1181.5,0,1145,0,1108,0C1070.8,0,1034,0,997,0C960,0,923,0,886,0C849.2,0,812,0,775,0C738.5,0,702,0,665,0C627.7,0,591,0,554,0C516.9,0,480,0,443,0C406.2,0,369,0,332,0C295.4,0,258,0,222,0C184.6,0,148,0,111,0C73.8,0,37,0,18,0L0,0Z"></path></svg>